<?xml version="1.0" encoding="utf-8"?>
<!-- Generator: Adobe Illustrator 28.1.0, SVG Export Plug-In . SVG Version: 6.00 Build 0)  -->
<svg version="1.1" id="Layer_1" xmlns="http://www.w3.org/2000/svg" xmlns:xlink="http://www.w3.org/1999/xlink" x="0px" y="0px"
	 viewBox="0 0 1227.5 1230.6" style="enable-background:new 0 0 1227.5 1230.6;" xml:space="preserve">
<style type="text/css">
	.st0{fill:#F9AE28;}
	.st1{fill:#8CC153;}
	.st2{fill:#A0D468;}
	.st3{fill:#AC92EB;}
	.st4{opacity:0.2;fill:#FFFFFF;enable-background:new    ;}
	.st5{fill:#9782D8;}
</style>
<circle class="st0" cx="614.3" cy="615.3" r="615.3"/>
<g>
	<path class="st1" d="M514,299.5c-72.3,7.6-209.6,105.5-207.8,122.1c1.7,16.5,156.3,83.8,228.7,76.2
		c72.3-7.6,126.3-58.1,120.5-112.9S586.3,291.9,514,299.5z"/>
	<path class="st2" d="M722.4,232c0-9.2-7.5-16.7-16.7-16.7c-2.3,0-4.6,0.5-6.6,1.3c-2.7,1.1-22.1,10.2-40.7,38.3
		c-24,36.2-36.1,86.8-36,150.4h33.3c0-38,4.9-91.2,28.8-129.4c13.8-22.1,27.8-28.7,27.9-28.8l-0.1,0.1
		C718.3,244.7,722.4,238.8,722.4,232z"/>
	<path class="st3" d="M722.4,932c0-46-37.3-83.3-83.3-83.3S555.7,886,555.7,932c0,46,37.3,83.3,83.4,83.3
		C685.1,1015.3,722.4,978,722.4,932z"/>
	<path class="st4" d="M622.4,898.6c0,9.2-7.5,16.7-16.7,16.7s-16.7-7.5-16.7-16.7s7.4-16.7,16.7-16.7
		C614.9,882,622.4,889.4,622.4,898.6z"/>
	<path class="st5" d="M789.1,815.3c0-46-37.3-83.4-83.4-83.4c-46,0-83.3,37.3-83.3,83.4c0,46,37.3,83.3,83.3,83.3
		C751.8,898.6,789.1,861.3,789.1,815.3z"/>
	<path class="st4" d="M689.1,782c0,9.2-7.5,16.7-16.7,16.7s-16.7-7.4-16.7-16.7c0-9.2,7.5-16.7,16.7-16.7S689.1,772.8,689.1,782z"/>
	<path class="st5" d="M655.7,815.3c0-46-37.3-83.4-83.3-83.4s-83.3,37.3-83.3,83.4c0,46,37.3,83.3,83.3,83.3
		C618.4,898.6,655.7,861.3,655.7,815.3z"/>
	<path class="st4" d="M555.7,782c0,9.2-7.4,16.7-16.7,16.7c-9.2,0-16.7-7.4-16.7-16.7c0-9.2,7.5-16.7,16.7-16.7
		C548.3,765.3,555.7,772.8,555.7,782z"/>
	<path class="st5" d="M522.4,582c0-46-37.3-83.3-83.3-83.3S355.8,536,355.8,582s37.3,83.3,83.3,83.3S522.4,628,522.4,582z"/>
	<path class="st4" d="M422.4,548.6c0,9.2-7.5,16.7-16.7,16.7s-16.7-7.5-16.7-16.7s7.4-16.7,16.7-16.7
		C414.9,532,422.4,539.4,422.4,548.6z"/>
	<path class="st5" d="M922.4,582c0-46-37.3-83.3-83.3-83.3S755.8,536,755.8,582s37.3,83.3,83.3,83.3S922.4,628,922.4,582z"/>
	<path class="st4" d="M822.4,548.6c0,9.2-7.5,16.7-16.7,16.7s-16.7-7.5-16.7-16.7s7.4-16.7,16.7-16.7
		C814.9,532,822.4,539.4,822.4,548.6z"/>
	<path class="st3" d="M855.7,698.6c0-46-37.3-83.3-83.3-83.3S689,652.6,689,698.6s37.3,83.3,83.4,83.3
		C818.4,782,855.7,744.7,855.7,698.6z"/>
	<path class="st4" d="M755.7,665.3c0,9.2-7.4,16.7-16.7,16.7c-9.2,0-16.7-7.5-16.7-16.7s7.5-16.7,16.7-16.7
		C748.3,648.6,755.7,656.1,755.7,665.3z"/>
	<path class="st3" d="M589.1,698.6c0-46-37.3-83.3-83.4-83.3c-46,0-83.3,37.3-83.3,83.3s37.3,83.3,83.3,83.3
		C551.8,782,589.1,744.7,589.1,698.6z"/>
	<path class="st4" d="M489.1,665.3c0,9.2-7.5,16.7-16.7,16.7s-16.7-7.5-16.7-16.7s7.5-16.7,16.7-16.7
		C481.6,648.6,489.1,656.1,489.1,665.3z"/>
	<path class="st5" d="M722.4,698.6c0-46-37.3-83.3-83.3-83.3s-83.4,37.3-83.4,83.3s37.3,83.3,83.4,83.3
		C685.1,782,722.4,744.7,722.4,698.6z"/>
	<path class="st4" d="M622.4,665.3c0,9.2-7.5,16.7-16.7,16.7s-16.7-7.5-16.7-16.7s7.4-16.7,16.7-16.7
		C614.9,648.6,622.4,656.1,622.4,665.3z"/>
	<path class="st3" d="M655.7,582c0-46-37.3-83.3-83.3-83.3S489.1,536,489.1,582s37.3,83.3,83.3,83.3S655.7,628,655.7,582z"/>
	<path class="st4" d="M555.7,548.6c0,9.2-7.4,16.7-16.7,16.7c-9.2,0-16.7-7.5-16.7-16.7s7.5-16.7,16.7-16.7
		C548.3,532,555.7,539.4,555.7,548.6z"/>
	<path class="st3" d="M789.1,582c0-46-37.3-83.3-83.4-83.3c-46,0-83.3,37.3-83.3,83.3s37.3,83.3,83.3,83.3
		C751.8,665.3,789.1,628,789.1,582z"/>
	<path class="st4" d="M689.1,548.6c0,9.2-7.5,16.7-16.7,16.7s-16.7-7.5-16.7-16.7s7.5-16.7,16.7-16.7
		C681.6,532,689.1,539.4,689.1,548.6z"/>
	<path class="st3" d="M589.1,465.3c0-46-37.3-83.3-83.3-83.3s-83.3,37.3-83.3,83.3s37.3,83.3,83.3,83.3S589.1,511.3,589.1,465.3z"/>
	<path class="st4" d="M489.1,432c0,9.2-7.5,16.7-16.7,16.7s-16.7-7.5-16.7-16.7s7.5-16.7,16.7-16.7
		C481.6,415.3,489.1,422.8,489.1,432z"/>
	<path class="st3" d="M855.7,465.3c0-46-37.3-83.3-83.3-83.3S689,419.3,689,465.3s37.3,83.3,83.4,83.3
		C818.4,548.6,855.7,511.3,855.7,465.3z"/>
	<path class="st4" d="M755.7,432c0,9.2-7.4,16.7-16.7,16.7c-9.2,0-16.7-7.5-16.7-16.7s7.5-16.7,16.7-16.7
		C748.3,415.3,755.7,422.8,755.7,432z"/>
	<path class="st5" d="M722.4,465.3c0-46-37.3-83.3-83.3-83.3s-83.3,37.3-83.3,83.3s37.3,83.3,83.3,83.3
		C685.1,548.6,722.4,511.3,722.4,465.3z"/>
	<path class="st4" d="M622.4,432c0,9.2-7.5,16.7-16.7,16.7S589,441.2,589,432s7.5-16.7,16.7-16.7C614.9,415.3,622.4,422.8,622.4,432
		z"/>
</g>
<path d="M-301.8-415.8c-5.5,0-10,4.5-10,10s4.5,10,10,10s10-4.5,10-10S-296.3-415.8-301.8-415.8 M-306.7-399.5
	c0.4-0.9,3-1.8,4.9-1.8s4.5,0.9,4.9,1.8c-1.4,1.1-3.1,1.7-4.9,1.7S-305.4-398.4-306.7-399.5 M-295.4-401c-1.4-1.7-4.9-2.3-6.4-2.3
	s-4.9,0.6-6.4,2.3c-1-1.3-1.6-3-1.6-4.8c0-4.4,3.6-8,8-8s8,3.6,8,8C-293.8-404-294.4-402.3-295.4-401 M-301.8-411.8
	c-1.9,0-3.5,1.6-3.5,3.5s1.6,3.5,3.5,3.5s3.5-1.6,3.5-3.5S-299.9-411.8-301.8-411.8 M-301.8-406.8c-0.8,0-1.5-0.7-1.5-1.5
	s0.7-1.5,1.5-1.5c0.8,0,1.5,0.7,1.5,1.5S-301-406.8-301.8-406.8z"/>
</svg>
